<svg width="50" height="50" viewBox="0 0 50 50" fill="none" xmlns="http://www.w3.org/2000/svg">
<path d="M31.2503 29.1667L30.2232 29.3376C30.1984 29.1884 30.2064 29.0356 30.2466 28.8899C30.2868 28.7441 30.3582 28.6088 30.456 28.4935C30.5537 28.3781 30.6754 28.2854 30.8126 28.2218C30.9497 28.1581 31.0991 28.1252 31.2503 28.1251V29.1667ZM8.33366 29.1667V30.2084C8.05739 30.2084 7.79244 30.0987 7.59709 29.9033C7.40174 29.708 7.29199 29.443 7.29199 29.1667H8.33366ZM12.5003 7.29175H36.167V9.37508H12.5003V7.29175ZM38.667 30.2084H31.2503V28.1251H38.667V30.2084ZM32.2774 28.9959L33.9566 39.0688L31.9024 39.4126L30.2232 29.3376L32.2774 28.9959ZM30.8753 42.7084H30.4316V40.6251H30.8753V42.7084ZM24.3628 39.4626L19.1232 31.6001L20.8566 30.4438L26.0962 38.3063L24.3628 39.4626ZM16.5212 30.2084H8.33366V28.1251H16.5212V30.2084ZM7.29199 29.1667V12.5001H9.37533V29.1667H7.29199ZM41.2753 11.4792L43.7753 23.9792L41.7337 24.3876L39.2337 11.8876L41.2753 11.4792ZM19.1232 31.6001C18.8379 31.172 18.4492 30.821 17.9956 30.5783C17.5421 30.3355 17.0356 30.2085 16.5212 30.2084V28.1251C17.3785 28.1251 18.2226 28.3367 18.9785 28.7412C19.7345 29.1457 20.3809 29.7305 20.8566 30.4438L19.1232 31.6001ZM33.9566 39.0688C34.0313 39.5166 34.0076 39.9754 33.8871 40.4131C33.7666 40.8508 33.5521 41.257 33.2586 41.6034C32.9652 41.9498 32.5997 42.2281 32.1878 42.4189C31.7758 42.6098 31.3293 42.7086 30.8753 42.7084V40.6251C31.0267 40.6253 31.1742 40.5925 31.3117 40.5291C31.4491 40.4656 31.571 40.3729 31.669 40.2575C31.767 40.1421 31.8386 40.0067 31.8789 39.8608C31.9192 39.7149 31.9272 39.5619 31.9024 39.4126L33.9566 39.0688ZM38.667 28.1251C39.1293 28.1251 39.5859 28.0226 40.0038 27.8248C40.4217 27.627 40.7906 27.339 41.0837 26.9815C41.3768 26.624 41.587 26.2059 41.6991 25.7573C41.8111 25.3088 41.8243 24.8409 41.7337 24.3876L43.7753 23.9792C43.9263 24.7346 43.9058 25.514 43.7192 26.2613C43.5327 27.0087 43.1828 27.7053 42.6946 28.3011C42.2064 28.8969 41.5921 29.377 40.896 29.7068C40.1999 30.0366 39.4393 30.2079 38.6691 30.2084L38.667 28.1251ZM36.167 7.29175C37.3713 7.29151 38.5385 7.70864 39.4699 8.47213C40.4013 9.23562 41.0393 10.2983 41.2753 11.4792L39.2337 11.8876C39.092 11.1787 38.7089 10.5409 38.1497 10.0828C37.5906 9.62465 36.8899 9.37455 36.167 9.37508V7.29175ZM30.4295 42.7084C29.2289 42.7088 28.0468 42.4128 26.9881 41.8465C25.9294 41.2803 25.0269 40.4614 24.3607 39.4626L26.0941 38.3063C26.5697 39.0196 27.2141 39.6045 27.97 40.009C28.726 40.4135 29.5701 40.6251 30.4274 40.6251L30.4295 42.7084ZM12.5003 9.37508C11.6715 9.37508 10.8767 9.70432 10.2906 10.2904C9.70457 10.8764 9.37533 11.6713 9.37533 12.5001H7.29199C7.29199 11.1187 7.84073 9.79399 8.81748 8.81723C9.79423 7.84048 11.119 7.29175 12.5003 7.29175V9.37508Z" fill="black"/>
<path d="M16.667 29.1668V8.3335" stroke="black" stroke-width="2.08333"/>
</svg>
