<svg width="50" height="50" viewBox="0 0 50 50" fill="none" xmlns="http://www.w3.org/2000/svg">
<path d="M31.2503 20.8334L30.2232 20.6626C30.1984 20.8117 30.2064 20.9645 30.2466 21.1103C30.2868 21.2561 30.3582 21.3913 30.456 21.5067C30.5537 21.6221 30.6754 21.7148 30.8126 21.7784C30.9497 21.842 31.0991 21.875 31.2503 21.8751V20.8334ZM8.33366 20.8334V19.7917C8.05739 19.7917 7.79244 19.9015 7.59709 20.0968C7.40174 20.2922 7.29199 20.5571 7.29199 20.8334H8.33366ZM12.5003 42.7084H36.167V40.6251H12.5003V42.7084ZM38.667 19.7917H31.2503V21.8751H38.667V19.7917ZM32.2774 21.0042L33.9566 10.9313L31.9024 10.5876L30.2232 20.6626L32.2774 21.0042ZM30.8753 7.29175H30.4316V9.37508H30.8753V7.29175ZM24.3628 10.5397L19.1212 18.4001L20.8545 19.5563L26.0941 11.6938L24.3628 10.5397ZM16.5212 19.7917H8.33366V21.8751H16.5212V19.7917ZM7.29199 20.8334V37.5001H9.37533V20.8334H7.29199ZM41.2753 38.5209L43.7753 26.0209L41.7337 25.6126L39.2337 38.1126L41.2753 38.5209ZM19.1212 18.4001C18.8358 18.8281 18.4492 19.1791 17.9956 19.4219C17.5421 19.6647 17.0356 19.7917 16.5212 19.7917V21.8751C17.3785 21.8751 18.2226 21.6635 18.9785 21.259C19.7345 20.8545 20.3788 20.2696 20.8545 19.5563L19.1212 18.4001ZM33.9566 10.9313C34.0313 10.4837 34.0076 10.0252 33.8872 9.58759C33.7668 9.15003 33.5525 8.74394 33.2593 8.39757C32.9661 8.05119 32.6009 7.77285 32.1892 7.58188C31.7775 7.39091 31.3292 7.29191 30.8753 7.29175V9.37508C31.0267 9.37485 31.1763 9.40761 31.3138 9.4711C31.4512 9.53458 31.5731 9.62725 31.6711 9.74267C31.769 9.85808 31.8407 9.99346 31.881 10.1394C31.9213 10.2853 31.9293 10.4382 31.9045 10.5876L33.9566 10.9313ZM38.667 21.8751C39.1293 21.8751 39.5859 21.9776 40.0038 22.1754C40.4217 22.3731 40.7906 22.6611 41.0837 23.0186C41.3768 23.3762 41.587 23.7943 41.6991 24.2428C41.8111 24.6914 41.8243 25.1592 41.7337 25.6126L43.7753 26.0209C43.9263 25.2656 43.9058 24.4862 43.7192 23.7388C43.5327 22.9915 43.1828 22.2948 42.6946 21.699C42.2064 21.1032 41.5921 20.6231 40.896 20.2933C40.1999 19.9635 39.4393 19.7922 38.6691 19.7917L38.667 21.8751ZM36.167 42.7084C37.3713 42.7086 38.5385 42.2915 39.4699 41.528C40.4013 40.7645 41.0393 39.7019 41.2753 38.5209L39.2337 38.1126C39.092 38.8214 38.7089 39.4593 38.1497 39.9174C37.5906 40.3755 36.8899 40.6256 36.167 40.6251V42.7084ZM30.4295 7.29175C29.2287 7.29157 28.0465 7.58794 26.9878 8.15455C25.9291 8.72115 25.0267 9.54045 24.3607 10.5397L26.0941 11.6938C26.5697 10.9805 27.2141 10.3957 27.97 9.99119C28.726 9.5867 29.5701 9.37507 30.4274 9.37508L30.4295 7.29175ZM12.5003 40.6251C11.6715 40.6251 10.8767 40.2958 10.2906 39.7098C9.70457 39.1237 9.37533 38.3289 9.37533 37.5001H7.29199C7.29199 38.184 7.42671 38.8613 7.68845 39.4932C7.9502 40.1251 8.33384 40.6993 8.81748 41.1829C9.30112 41.6666 9.87528 42.0502 10.5072 42.312C11.1391 42.5737 11.8164 42.7084 12.5003 42.7084V40.6251Z" fill="black"/>
<path d="M16.667 20.8335V41.6668" stroke="black" stroke-width="2.08333"/>
</svg>
