<svg width="50" height="50" viewBox="0 0 50 50" fill="none" xmlns="http://www.w3.org/2000/svg">
<path d="M13.4622 27.0834C12.8886 27.0834 12.3977 26.8792 11.9893 26.4709C11.581 26.0626 11.3775 25.5723 11.3789 25.0001C11.3789 24.4265 11.5824 23.9362 11.9893 23.5292C12.3963 23.1223 12.8872 22.9181 13.4622 22.9167C14.0345 22.9167 14.5247 23.1209 14.9331 23.5292C15.3414 23.9376 15.5456 24.4279 15.5456 25.0001C15.5456 25.5737 15.3414 26.064 14.9331 26.4709C14.5247 26.8779 14.0345 27.082 13.4622 27.0834ZM24.9997 27.0834C24.4261 27.0834 23.9359 26.8792 23.5289 26.4709C23.122 26.0626 22.9178 25.5723 22.9164 25.0001C22.9164 24.4265 23.1206 23.9362 23.5289 23.5292C23.9372 23.1223 24.4275 22.9181 24.9997 22.9167C25.5734 22.9167 26.0636 23.1209 26.4706 23.5292C26.8775 23.9376 27.0817 24.4279 27.0831 25.0001C27.0831 25.5737 26.8789 26.064 26.4706 26.4709C26.0622 26.8779 25.572 27.082 24.9997 27.0834ZM36.5372 27.0834C35.965 27.0834 35.4747 26.8792 35.0664 26.4709C34.6581 26.0626 34.4539 25.5723 34.4539 25.0001C34.4539 24.4265 34.6581 23.9362 35.0664 23.5292C35.4747 23.1223 35.965 22.9181 36.5372 22.9167C37.1109 22.9167 37.6018 23.1209 38.0102 23.5292C38.4185 23.9376 38.622 24.4279 38.6206 25.0001C38.6206 25.5737 38.4171 26.064 38.0102 26.4709C37.6032 26.8779 37.1122 27.082 36.5372 27.0834Z" fill="black"/>
</svg>
